<?xml version="1.0" encoding="utf-8"?>
<!-- Generator: Adobe Illustrator 16.0.0, SVG Export Plug-In . SVG Version: 6.00 Build 0)  -->
<!DOCTYPE svg PUBLIC "-//W3C//DTD SVG 1.1//EN" "http://www.w3.org/Graphics/SVG/1.1/DTD/svg11.dtd">
<svg version="1.1" id="Layer_1" xmlns="http://www.w3.org/2000/svg" xmlns:xlink="http://www.w3.org/1999/xlink" x="0px" y="0px"
	 width="1600px" height="233px" viewBox="0 0 1600 233" enable-background="new 0 0 1600 233" xml:space="preserve">
<g>
	<polyline fill="none" stroke="#ABA5DA" stroke-width="0.8445" stroke-miterlimit="10" points="-0.593,121.527 90.142,146.102 
		193.177,177.563 293.255,136.391 394.179,133.012 498.479,185.712 597.714,131.322 700.326,154.336 799.513,107.887 
		906.184,206.486 1005.84,164.26 1102.752,60.803 1203.041,19.209 1307.341,92.51 1407.21,50.246 1510.033,69.459 1599.619,67.348 	
		"/>
	<circle fill="#ABA5DA" cx="193.023" cy="177.772" r="3.435"/>
	<circle fill="#ABA5DA" cx="293.256" cy="136.391" r="3.435"/>
	<circle fill="#ABA5DA" cx="394.178" cy="133.011" r="3.435"/>
	<circle fill="#ABA5DA" cx="498.48" cy="185.712" r="3.435"/>
	<circle fill="#ABA5DA" cx="597.713" cy="131.322" r="3.435"/>
	<circle fill="#ABA5DA" cx="700.466" cy="154.405" r="3.435"/>
	<circle fill="#ABA5DA" cx="799.583" cy="108.59" r="3.435"/>
	<circle fill="#ABA5DA" cx="906.254" cy="206.486" r="3.435"/>
	<circle fill="#ABA5DA" cx="1005.347" cy="163.978" r="3.435"/>
	<circle fill="#ABA5DA" cx="1102.752" cy="60.803" r="3.435"/>
	<circle fill="#ABA5DA" cx="1203.042" cy="19.209" r="3.435"/>
	<path fill="#ABA5DA" d="M1310.774,92.51c0,1.898-1.54,3.435-3.435,3.435c-1.896,0-3.437-1.537-3.437-3.435
		c0-1.897,1.539-3.435,3.437-3.435C1309.234,89.076,1310.774,90.613,1310.774,92.51z"/>
	<circle fill="#ABA5DA" cx="1407.211" cy="50.246" r="3.435"/>
	<circle fill="#ABA5DA" cx="1509.963" cy="69.107" r="3.435"/>
</g>
<g>
	<g opacity="0.7">
		<polyline fill="none" stroke="#AFB8DA" stroke-width="0.8447" stroke-miterlimit="10" points="0,128.129 139.203,112.08 
			243.1,179.654 342.773,113.769 444.559,91.807 542.491,40.998 648.907,78.292 753.715,174.164 857.337,192.326 953.062,116.661 
			1055.334,93.497 1157.478,108.279 1257.995,93.074 1361.47,136.575 1461.144,76.603 1563.353,99.832 1600.489,86.74 		"/>
		<circle fill="#AFB8DA" cx="140.586" cy="111.434" r="3.436"/>
		<circle fill="#AFB8DA" cx="244.695" cy="179.854" r="3.436"/>
		<circle fill="#AFB8DA" cx="344.157" cy="113.226" r="3.435"/>
		<circle fill="#AFB8DA" cx="444.675" cy="92.742" r="3.436"/>
		<circle fill="#AFB8DA" cx="543.504" cy="40.998" r="3.435"/>
		<circle fill="#AFB8DA" cx="647.073" cy="78.292" r="3.435"/>
		<circle fill="#AFB8DA" cx="753.082" cy="173.742" r="3.436"/>
		<circle fill="#AFB8DA" cx="855.711" cy="192.326" r="3.436"/>
		<circle fill="#AFB8DA" cx="953.697" cy="116.661" r="3.436"/>
		<circle fill="#AFB8DA" cx="1054.003" cy="93.433" r="3.436"/>
		<circle fill="#AFB8DA" cx="1157.267" cy="107.37" r="3.436"/>
		<circle fill="#AFB8DA" cx="1257.996" cy="93.074" r="3.436"/>
		<circle fill="#AFB8DA" cx="1361.471" cy="136.575" r="3.437"/>
		<circle fill="#AFB8DA" cx="1460.722" cy="77.236" r="3.436"/>
		<circle fill="#AFB8DA" cx="1563.351" cy="99.832" r="3.436"/>
	</g>
</g>
</svg>
