<?xml version="1.0" encoding="utf-8"?>
<!-- Generator: Adobe Illustrator 15.0.0, SVG Export Plug-In . SVG Version: 6.00 Build 0)  -->
<!DOCTYPE svg PUBLIC "-//W3C//DTD SVG 1.1//EN" "http://www.w3.org/Graphics/SVG/1.1/DTD/svg11.dtd">
<svg version="1.1" id="Layer_1" xmlns="http://www.w3.org/2000/svg" xmlns:xlink="http://www.w3.org/1999/xlink" x="0px" y="0px"
	 width="1600px" height="233px" viewBox="0 0 1600 233" enable-background="new 0 0 1600 233" xml:space="preserve">
<g>
	<polyline fill="none" stroke="#ABA5DA" stroke-width="0.8445" stroke-miterlimit="10" points="-1.831,125.529 88.905,150.104 
		191.94,181.564 292.017,140.393 392.942,137.014 497.241,189.714 596.477,135.324 699.088,158.338 798.275,111.889 
		904.947,210.488 1004.603,168.262 1101.513,64.805 1201.802,23.211 1306.103,96.512 1405.972,54.248 1508.795,73.461 
		1598.381,71.35 	"/>
	<circle fill="#ABA5DA" cx="191.785" cy="181.774" r="3.435"/>
	<circle fill="#ABA5DA" cx="292.018" cy="140.393" r="3.435"/>
	<circle fill="#ABA5DA" cx="392.941" cy="137.013" r="3.435"/>
	<circle fill="#ABA5DA" cx="497.242" cy="189.714" r="3.435"/>
	<circle fill="#ABA5DA" cx="596.476" cy="135.324" r="3.435"/>
	<circle fill="#ABA5DA" cx="699.229" cy="158.407" r="3.435"/>
	<circle fill="#ABA5DA" cx="798.345" cy="112.592" r="3.436"/>
	<circle fill="#ABA5DA" cx="905.017" cy="210.488" r="3.435"/>
	<circle fill="#ABA5DA" cx="1004.109" cy="167.98" r="3.435"/>
	<circle fill="#ABA5DA" cx="1101.513" cy="64.805" r="3.435"/>
	<circle fill="#ABA5DA" cx="1201.804" cy="23.211" r="3.436"/>
	<path fill="#ABA5DA" d="M1309.537,96.512c0,1.898-1.541,3.436-3.436,3.436c-1.896,0-3.438-1.537-3.438-3.436
		c0-1.896,1.539-3.435,3.438-3.435C1307.996,93.078,1309.537,94.615,1309.537,96.512z"/>
	<circle fill="#ABA5DA" cx="1405.974" cy="54.248" r="3.436"/>
	<circle fill="#ABA5DA" cx="1508.724" cy="73.109" r="3.435"/>
</g>
</svg>
