<?xml version="1.0" encoding="utf-8"?>
<!-- Generator: Adobe Illustrator 15.0.0, SVG Export Plug-In . SVG Version: 6.00 Build 0)  -->
<!DOCTYPE svg PUBLIC "-//W3C//DTD SVG 1.1//EN" "http://www.w3.org/Graphics/SVG/1.1/DTD/svg11.dtd">
<svg version="1.1" id="Layer_1" xmlns="http://www.w3.org/2000/svg" xmlns:xlink="http://www.w3.org/1999/xlink" x="0px" y="0px"
	 width="1600px" height="233px" viewBox="0 0 1600 233" enable-background="new 0 0 1600 233" xml:space="preserve">
<g>
	<g opacity="0.7">
		<polyline fill="none" stroke="#AFB8DA" stroke-width="0.8447" stroke-miterlimit="10" points="0,128.129 139.203,112.08 
			243.1,179.654 342.773,113.769 444.559,91.807 542.491,40.998 648.907,78.292 753.716,174.164 857.338,192.326 953.062,116.661 
			1055.334,93.497 1157.478,108.279 1257.995,93.074 1361.47,136.575 1461.144,76.603 1563.353,99.832 1600.489,86.74 		"/>
		<circle fill="#AFB8DA" cx="140.586" cy="111.434" r="3.436"/>
		<circle fill="#AFB8DA" cx="244.695" cy="179.854" r="3.436"/>
		<circle fill="#AFB8DA" cx="344.157" cy="113.226" r="3.435"/>
		<circle fill="#AFB8DA" cx="444.676" cy="92.742" r="3.436"/>
		<circle fill="#AFB8DA" cx="543.505" cy="40.998" r="3.435"/>
		<circle fill="#AFB8DA" cx="647.073" cy="78.292" r="3.435"/>
		<circle fill="#AFB8DA" cx="753.082" cy="173.742" r="3.436"/>
		<circle fill="#AFB8DA" cx="855.711" cy="192.326" r="3.436"/>
		<circle fill="#AFB8DA" cx="953.697" cy="116.661" r="3.436"/>
		<circle fill="#AFB8DA" cx="1054.004" cy="93.433" r="3.436"/>
		<circle fill="#AFB8DA" cx="1157.267" cy="107.37" r="3.436"/>
		<circle fill="#AFB8DA" cx="1257.996" cy="93.074" r="3.436"/>
		<circle fill="#AFB8DA" cx="1361.471" cy="136.575" r="3.437"/>
		<circle fill="#AFB8DA" cx="1460.722" cy="77.236" r="3.436"/>
		<circle fill="#AFB8DA" cx="1563.351" cy="99.832" r="3.436"/>
	</g>
</g>
</svg>
